<svg xmlns="http://www.w3.org/2000/svg" xmlns:xlink="http://www.w3.org/1999/xlink" width="794" zoomAndPan="magnify" viewBox="0 0 594.95996 842.24997" height="1123" preserveAspectRatio="xMidYMid meet" version="1.2"><defs><clipPath id="535c405515"><path d="M 289 302.960938 L 313 302.960938 L 313 325 L 289 325 Z M 289 302.960938 "/></clipPath><clipPath id="2e84aa8e26"><path d="M 178.667969 409 L 211 409 L 211 432 L 178.667969 432 Z M 178.667969 409 "/></clipPath><clipPath id="6cfbd78a92"><path d="M 398 409 L 416.207031 409 L 416.207031 432 L 398 432 Z M 398 409 "/></clipPath></defs><g id="32f17d9f1c"><path style=" stroke:none;fill-rule:nonzero;fill:#ffffff;fill-opacity:1;" d="M 383.742188 420.070312 C 383.714844 419.953125 383.675781 419.847656 383.636719 419.742188 C 383.597656 419.652344 383.570312 419.546875 383.519531 419.457031 C 383.464844 419.363281 383.386719 419.285156 383.324219 419.207031 C 383.257812 419.128906 383.191406 419.039062 383.101562 418.972656 C 383.023438 418.910156 382.929688 418.867188 382.839844 418.816406 C 382.734375 418.765625 382.644531 418.699219 382.527344 418.671875 C 382.5 418.671875 382.476562 418.648438 382.449219 418.632812 L 320.117188 401.28125 L 302.761719 338.945312 C 302.761719 338.945312 302.734375 338.894531 302.722656 338.867188 C 302.683594 338.75 302.632812 338.660156 302.566406 338.554688 C 302.511719 338.464844 302.472656 338.371094 302.410156 338.292969 C 302.34375 338.203125 302.253906 338.136719 302.160156 338.058594 C 302.082031 337.996094 302.019531 337.929688 301.925781 337.878906 C 301.835938 337.824219 301.730469 337.785156 301.625 337.746094 C 301.523438 337.707031 301.429688 337.667969 301.324219 337.640625 C 301.300781 337.640625 301.273438 337.617188 301.234375 337.617188 C 301.15625 337.617188 301.066406 337.617188 300.988281 337.617188 C 300.910156 337.617188 300.816406 337.589844 300.738281 337.617188 C 300.710938 337.617188 300.6875 337.640625 300.648438 337.640625 C 300.542969 337.667969 300.453125 337.707031 300.359375 337.734375 C 300.257812 337.773438 300.140625 337.8125 300.046875 337.863281 C 299.96875 337.917969 299.902344 337.980469 299.824219 338.046875 C 299.734375 338.125 299.644531 338.191406 299.578125 338.28125 C 299.511719 338.359375 299.472656 338.453125 299.421875 338.542969 C 299.367188 338.648438 299.304688 338.738281 299.265625 338.855469 C 299.265625 338.882812 299.238281 338.90625 299.226562 338.933594 L 281.871094 401.265625 L 219.539062 418.621094 C 219.539062 418.621094 219.484375 418.648438 219.460938 418.660156 C 219.355469 418.699219 219.25 418.75 219.148438 418.804688 C 219.054688 418.855469 218.964844 418.894531 218.886719 418.960938 C 218.808594 419.027344 218.742188 419.105469 218.664062 419.195312 C 218.597656 419.273438 218.519531 419.351562 218.46875 419.441406 C 218.414062 419.535156 218.390625 419.625 218.351562 419.730469 C 218.3125 419.835938 218.257812 419.9375 218.246094 420.054688 C 218.246094 420.082031 218.21875 420.109375 218.21875 420.136719 C 218.21875 420.226562 218.21875 420.304688 218.21875 420.382812 C 218.21875 420.460938 218.195312 420.550781 218.21875 420.628906 C 218.21875 420.65625 218.246094 420.683594 218.246094 420.707031 C 218.273438 420.828125 218.3125 420.929688 218.351562 421.035156 C 218.390625 421.125 218.414062 421.230469 218.46875 421.320312 C 218.519531 421.414062 218.597656 421.492188 218.664062 421.570312 C 218.730469 421.648438 218.792969 421.738281 218.886719 421.804688 C 218.964844 421.871094 219.054688 421.910156 219.148438 421.960938 C 219.25 422.015625 219.34375 422.078125 219.460938 422.105469 C 219.484375 422.105469 219.511719 422.132812 219.539062 422.144531 L 281.871094 439.5 L 299.226562 501.832031 C 299.226562 501.832031 299.25 501.882812 299.265625 501.910156 C 299.289062 502 299.34375 502.066406 299.382812 502.15625 C 299.433594 502.261719 299.484375 502.367188 299.566406 502.457031 C 299.617188 502.523438 299.683594 502.589844 299.746094 502.640625 C 299.839844 502.71875 299.917969 502.796875 300.019531 502.863281 C 300.097656 502.914062 300.164062 502.941406 300.257812 502.980469 C 300.375 503.03125 300.492188 503.070312 300.609375 503.097656 C 300.660156 503.097656 300.699219 503.136719 300.753906 503.148438 C 300.832031 503.148438 300.921875 503.164062 301 503.164062 C 301.078125 503.164062 301.167969 503.164062 301.246094 503.148438 C 301.300781 503.148438 301.339844 503.109375 301.390625 503.097656 C 301.507812 503.070312 301.625 503.03125 301.742188 502.980469 C 301.820312 502.941406 301.898438 502.902344 301.980469 502.863281 C 302.082031 502.796875 302.175781 502.71875 302.253906 502.640625 C 302.316406 502.574219 302.371094 502.523438 302.433594 502.457031 C 302.511719 502.367188 302.566406 502.261719 302.617188 502.15625 C 302.65625 502.078125 302.695312 502 302.734375 501.910156 C 302.734375 501.882812 302.761719 501.859375 302.773438 501.832031 L 320.128906 439.5 L 382.460938 422.144531 C 382.460938 422.144531 382.515625 422.117188 382.539062 422.105469 C 382.644531 422.066406 382.75 422.015625 382.851562 421.960938 C 382.945312 421.910156 383.035156 421.871094 383.113281 421.804688 C 383.191406 421.738281 383.257812 421.660156 383.335938 421.570312 C 383.402344 421.492188 383.480469 421.414062 383.53125 421.320312 C 383.582031 421.230469 383.609375 421.140625 383.648438 421.035156 C 383.6875 420.929688 383.742188 420.828125 383.753906 420.707031 C 383.753906 420.683594 383.78125 420.65625 383.78125 420.628906 C 383.78125 420.539062 383.78125 420.460938 383.78125 420.382812 C 383.78125 420.304688 383.804688 420.214844 383.78125 420.136719 C 383.78125 420.109375 383.753906 420.082031 383.753906 420.054688 Z M 282.824219 435.976562 L 233.449219 422.234375 L 296.5625 422.234375 Z M 299.160156 415.972656 L 288.09375 404.90625 L 285.421875 402.230469 L 299.160156 352.871094 L 299.160156 415.984375 Z M 302.828125 487.933594 L 302.828125 424.820312 L 316.566406 438.558594 Z M 305.421875 418.570312 L 319.164062 404.828125 L 368.539062 418.570312 Z M 305.421875 418.570312 "/><g clip-rule="nonzero" clip-path="url(#535c405515)"><path style=" stroke:none;fill-rule:nonzero;fill:#ffffff;fill-opacity:1;" d="M 294.878906 324.582031 L 298.636719 324.582031 L 298.636719 322.804688 L 294.878906 322.375 L 294.878906 308.570312 L 306.453125 324.644531 L 309.234375 324.644531 L 309.234375 305.136719 L 312.039062 304.722656 L 312.039062 302.960938 L 303.363281 302.960938 L 303.363281 304.722656 L 307.121094 305.152344 L 307.121094 316.253906 L 297.4375 302.960938 L 290.011719 302.960938 L 290.011719 304.746094 L 292.269531 304.941406 L 292.753906 305.621094 L 292.753906 322.414062 L 289.960938 322.804688 L 289.960938 324.582031 Z M 294.878906 324.582031 "/></g><path style=" stroke:none;fill-rule:nonzero;fill:#ffffff;fill-opacity:1;" d="M 302.945312 524.171875 L 301.40625 523.464844 C 299.445312 522.589844 298.417969 521.679688 298.417969 519.941406 C 298.417969 518.207031 299.929688 516.953125 301.808594 516.953125 C 302.617188 516.953125 303.324219 517.125 304.027344 517.410156 L 304.652344 521.273438 L 307.667969 521.273438 L 307.941406 516.667969 C 306.335938 515.609375 304.066406 514.996094 301.71875 514.996094 C 296.734375 514.996094 293.535156 517.398438 293.535156 521.351562 C 293.535156 524.992188 295.765625 526.949219 299.644531 528.710938 L 301.039062 529.351562 C 303.023438 530.238281 303.882812 531.019531 303.882812 532.757812 C 303.882812 534.492188 302.617188 535.886719 300.269531 535.886719 C 299.03125 535.886719 298.0625 535.679688 297.046875 535.289062 L 296.394531 531.230469 L 293.328125 531.230469 L 293.132812 536.121094 C 295.023438 537.296875 297.804688 537.84375 300.269531 537.84375 C 305.894531 537.84375 308.867188 535.09375 308.867188 531.214844 C 308.867188 527.890625 307.144531 526.074219 302.945312 524.183594 Z M 302.945312 524.171875 "/><g clip-rule="nonzero" clip-path="url(#2e84aa8e26)"><path style=" stroke:none;fill-rule:nonzero;fill:#ffffff;fill-opacity:1;" d="M 206.644531 409.550781 L 203.710938 409.550781 L 203.710938 411.328125 L 206.03125 411.691406 L 202.234375 425.066406 L 198.414062 411.667969 L 201.296875 411.328125 L 201.296875 409.550781 L 191.445312 409.550781 L 191.445312 411.328125 L 193.84375 411.613281 L 189.90625 424.910156 L 186.511719 411.589844 L 188.9375 411.328125 L 188.9375 409.550781 L 178.722656 409.550781 L 178.722656 411.328125 L 180.746094 411.535156 L 186.644531 431.238281 L 189.839844 431.238281 L 194.40625 416.234375 L 199.066406 431.238281 L 202.273438 431.238281 L 208.09375 411.746094 L 210.664062 411.328125 L 210.664062 409.550781 Z M 206.644531 409.550781 "/></g><g clip-rule="nonzero" clip-path="url(#6cfbd78a92)"><path style=" stroke:none;fill-rule:nonzero;fill:#ffffff;fill-opacity:1;" d="M 413.398438 425.535156 L 412.746094 429.375 L 406.589844 429.375 C 406.535156 426.632812 406.523438 423.855469 406.523438 421.023438 L 410.113281 421.023438 L 410.488281 423.578125 L 412.394531 423.578125 L 412.394531 416.496094 L 410.488281 416.496094 L 410.085938 419.078125 L 406.523438 419.078125 C 406.523438 416.496094 406.535156 413.949219 406.589844 411.445312 L 412.09375 411.445312 L 412.746094 415.253906 L 415.488281 415.253906 L 415.253906 409.589844 L 398.445312 409.589844 L 398.445312 411.351562 L 400.914062 411.613281 C 400.964844 414.339844 400.976562 417.082031 400.976562 419.796875 L 400.976562 421.007812 C 400.976562 423.773438 400.964844 426.503906 400.914062 429.191406 L 398.445312 429.453125 L 398.445312 431.214844 L 415.90625 431.214844 L 416.140625 425.550781 L 413.398438 425.550781 Z M 413.398438 425.535156 "/></g></g></svg>